<svg xmlns="http://www.w3.org/2000/svg" viewBox="-283 -283 6235 1271" role="img" aria-label="TintWorks">
<title>TintWorks</title>
<defs>
<linearGradient id="tw-tint" x1="0" y1="0" x2="1" y2="0">
<stop offset="0%" stop-color="#E8A33A" stop-opacity="0.18"></stop>
<stop offset="55%" stop-color="#E8A33A" stop-opacity="0.65"></stop>
<stop offset="100%" stop-color="#E8A33A" stop-opacity="1"></stop>
</linearGradient>
</defs>
<g transform="scale(11)">
<path d="M30 30L44 18L64 18L70 30Z" fill="url(#tw-tint)" stroke="#E8A33A" stroke-width="1.5" stroke-linejoin="miter"></path>
<path d="M52 18L50 30" stroke="#000" stroke-width="1.5" opacity="0.55"></path>
<path d="M8 44C10 38 16 34 22 32L30 30L44 18L64 18L70 30L84 33C88 34 90 38 90 44" fill="none" stroke="#f6f1e6" stroke-width="2.25" stroke-linecap="square" stroke-linejoin="miter"></path>
<path d="M4 48L24 48" stroke="#f6f1e6" stroke-width="2.25" stroke-linecap="square"></path>
<path d="M40 48L68 48" stroke="#f6f1e6" stroke-width="2.25" stroke-linecap="square"></path>
<path d="M84 48L92 48" stroke="#f6f1e6" stroke-width="2.25" stroke-linecap="square"></path>
<path d="M24 48A8 8 0 0 1 40 48" fill="none" stroke="#f6f1e6" stroke-width="2.25"></path>
<path d="M68 48A8 8 0 0 1 84 48" fill="none" stroke="#f6f1e6" stroke-width="2.25"></path>
</g>
<path transform="matrix(1 0 -0.1944 1 1163 696)" fill="#f6f1e6" d="M307 0L126 0L126-535L7-535L7-688L426-688L426-535L307-535L307 0ZM653 0L473 0L473-688L653-688L653 0ZM1179 0L1020 0L909-310L904-310L904 0L733 0L733-688L906-688L1002-421L1008-421L1008-688L1179-688L1179 0ZM1526 0L1345 0L1345-535L1226-535L1226-688L1645-688L1645-535L1526-535L1526 0ZM2338 0L2094 0L2046-422L2038-422L1990 0L1746 0L1662-688L1842-688L1877-186L1886-186L1942-688L2148-688L2206-186L2215-186L2245-688L2423-688L2338 0ZM2677 8Q2567 8 2520.5-23.5Q2474-55 2463.5-121.5Q2453-188 2453-344L2453-344Q2453-501 2463.5-567Q2474-633 2520.5-664.5Q2567-696 2677-696L2677-696Q2787-696 2833.5-664.5Q2880-633 2891-566.5Q2902-500 2902-344L2902-344Q2902-188 2891-122Q2880-56 2833.5-24Q2787 8 2677 8L2677 8ZM2677-140Q2701-140 2709-149.5Q2717-159 2719-195.5Q2721-232 2721-344L2721-344Q2721-456 2719-492.5Q2717-529 2709-538.5Q2701-548 2677-548L2677-548Q2653-548 2645.5-538.5Q2638-529 2636-492.5Q2634-456 2634-344L2634-344Q2634-232 2636-195.5Q2638-159 2645.5-149.5Q2653-140 2677-140L2677-140ZM3422 0L3237 0L3183-226L3152-226L3152 0L2972 0L2972-688L3225-688Q3301-688 3340-663.5Q3379-639 3392.5-590.5Q3406-542 3406-457L3406-457Q3406-380 3394-332.5Q3382-285 3346-258L3346-258L3422 0ZM3152-541L3152-368L3179-368Q3201-368 3210-372.5Q3219-377 3222-394Q3225-411 3225-455L3225-455Q3225-499 3222.5-515.5Q3220-532 3211-536.5Q3202-541 3179-541L3179-541L3152-541ZM3940 0L3749 0L3666-273L3653-273L3653 0L3473 0L3473-688L3653-688L3653-425L3666-425L3752-688L3938-688L3809-360L3940 0ZM4167 8Q4121 8 4068 2.5Q4015-3 3978-11L3978-11L3978-147Q4071-140 4115-140L4115-140Q4146-140 4160-142Q4174-144 4180-151L4180-151Q4186-157 4188-168Q4190-179 4190-199L4190-199Q4190-229 4186-241.5Q4182-254 4170-260Q4158-266 4127-271L4127-271L4042-287Q4000-295 3982.5-344.5Q3965-394 3965-484L3965-484Q3965-572 3991.5-618.5Q4018-665 4063.5-680.5Q4109-696 4178-696L4178-696Q4230-696 4274-690Q4318-684 4343-678L4343-678L4343-541Q4283-548 4220-548L4220-548Q4191-548 4177.5-546.5Q4164-545 4157-539L4157-539Q4150-533 4147.5-522Q4145-511 4145-490L4145-490Q4145-466 4147.5-455Q4150-444 4158-439Q4166-434 4185-430L4185-430L4258-416Q4292-409 4315.5-394Q4339-379 4354-341L4354-341Q4370-297 4370-223Q4370-122 4344.5-72Q4319-22 4277-7Q4235 8 4167 8L4167 8Z"></path>
</svg>
